M48
; DRILL file {KiCad (5.1.0)-1} date 13/04/2024 1:58:09 pm
; FORMAT={-:-/ absolute / inch / decimal}
; #@! TF.CreationDate,2024-04-13T13:58:09+12:00
; #@! TF.GenerationSoftware,Kicad,Pcbnew,(5.1.0)-1
; #@! TF.FileFunction,NonPlated,1,2,NPTH
FMAT,2
INCH
T1C0.0669
T2C0.1201
T3C0.1575
%
G90
G05
T1
X9.712Y-3.568
X10.112Y-3.568
X3.6272Y-4.3142
X4.0272Y-4.3142
X7.3673Y-4.3142
X7.7673Y-4.3142
X-1.0465Y-4.3201
X-0.6465Y-4.3201
X9.4419Y-4.3187
X9.8419Y-4.3187
X5.8713Y-4.3142
X6.2713Y-4.3142
X-0.2026Y-4.3193
X0.1974Y-4.3193
X8.4894Y-3.5661
X8.8894Y-3.5661
X1.5701Y-2.8181
X1.9701Y-2.8181
X1.9441Y-2.0701
X2.3441Y-2.0701
X1.7571Y-3.5661
X2.1571Y-3.5661
X7.9283Y-2.0701
X8.3283Y-2.0701
X6.4323Y-2.0701
X6.8323Y-2.0701
X4.3752Y-4.3142
X4.7752Y-4.3142
X0.261Y-3.5661
X0.661Y-3.5661
X9.7984Y-2.8181
X10.1984Y-2.8181
X4.0012Y-3.5661
X4.4012Y-3.5661
X2.3181Y-2.8181
X2.7181Y-2.8181
X-0.861Y-2.8181
X-0.461Y-2.8181
X6.9933Y-3.5661
X7.3933Y-3.5661
X2.6921Y-2.0701
X3.0921Y-2.0701
X10.5547Y-2.8169
X10.9547Y-2.8169
X-0.7783Y-3.5661
X-0.3783Y-3.5661
X6.8063Y-2.8181
X7.2063Y-2.8181
X9.0654Y-5.0693
X9.4654Y-5.0693
X5.3102Y-2.8181
X5.7102Y-2.8181
X5.1232Y-4.3142
X5.5232Y-4.3142
X-1.6276Y-3.5685
X-1.2276Y-3.5685
X7.5543Y-2.8181
X7.9543Y-2.8181
X8.3024Y-2.8181
X8.7024Y-2.8181
X9.8169Y-5.0701
X10.2169Y-5.0701
X2.8791Y-4.3142
X3.2791Y-4.3142
X5.6843Y-2.0701
X6.0843Y-2.0701
X10.1941Y-4.3185
X10.5941Y-4.3185
X7.1803Y-2.0701
X7.5803Y-2.0701
X4.9362Y-2.0701
X5.3362Y-2.0701
X5.4972Y-3.5661
X5.8972Y-3.5661
X3.8142Y-2.8181
X4.2142Y-2.8181
X7.7413Y-3.5661
X8.1413Y-3.5661
X-0.3Y-2.0701
X0.1Y-2.0701
X1.3831Y-4.3142
X1.7831Y-4.3142
X3.6272Y-5.0622
X4.0272Y-5.0622
X2.5051Y-3.5661
X2.9051Y-3.5661
X9.8055Y-2.0685
X10.2055Y-2.0685
X4.1882Y-2.0701
X4.5882Y-2.0701
X8.6764Y-2.0701
X9.0764Y-2.0701
X6.0583Y-2.8181
X6.4583Y-2.8181
X9.0504Y-2.8181
X9.4504Y-2.8181
X1.6593Y-5.0615
X2.0593Y-5.0615
X4.7492Y-3.5661
X5.1492Y-3.5661
X-1.0488Y-2.0657
X-0.6488Y-2.0657
X6.2453Y-3.5661
X6.6453Y-3.5661
X3.0661Y-2.8181
X3.4661Y-2.8181
X3.4402Y-2.0701
X3.8402Y-2.0701
X6.6193Y-4.3142
X7.0193Y-4.3142
X3.2531Y-3.5661
X3.6531Y-3.5661
X1.1961Y-2.0701
X1.5961Y-2.0701
X2.1311Y-4.3142
X2.5311Y-4.3142
X0.074Y-2.8181
X0.474Y-2.8181
X8.4061Y-4.3155
X8.8061Y-4.3155
X4.5622Y-2.8181
X4.9622Y-2.8181
X1.0091Y-3.5661
X1.4091Y-3.5661
X0.448Y-2.0701
X0.848Y-2.0701
X0.635Y-4.3142
X1.035Y-4.3142
X0.822Y-2.8181
X1.222Y-2.8181
X5.5957Y-5.064
X5.9957Y-5.064
T2
X9.537Y-1.7929
X10.474Y-1.7929
X9.4435Y-3.2924
X10.3805Y-3.2924
T3
X8.1283Y-2.0701
X6.6323Y-2.0701
X4.5752Y-4.3142
X0.461Y-3.5661
X9.9984Y-2.8181
X4.2012Y-3.5661
X2.5181Y-2.8181
X-0.661Y-2.8181
X7.1933Y-3.5661
X2.8921Y-2.0701
X10.7547Y-2.8169
X-0.5783Y-3.5661
X7.0063Y-2.8181
X9.2654Y-5.0693
X5.5102Y-2.8181
X5.3232Y-4.3142
X-1.4276Y-3.5685
X7.7543Y-2.8181
X8.5024Y-2.8181
X10.0169Y-5.0701
X3.0791Y-4.3142
X5.8843Y-2.0701
X10.3941Y-4.3185
X7.3803Y-2.0701
X5.1362Y-2.0701
X5.6972Y-3.5661
X4.0142Y-2.8181
X7.9413Y-3.5661
X-0.1Y-2.0701
X1.5831Y-4.3142
X3.8272Y-5.0622
X2.7051Y-3.5661
X9.537Y-2.3929
X10.0055Y-2.0685
X10.474Y-2.3929
X4.3882Y-2.0701
X8.8764Y-2.0701
X6.2583Y-2.8181
X9.2504Y-2.8181
X1.8593Y-5.0615
X4.9492Y-3.5661
X-0.8488Y-2.0657
X6.4453Y-3.5661
X3.2661Y-2.8181
X3.6402Y-2.0701
X6.8193Y-4.3142
X3.4531Y-3.5661
X1.3961Y-2.0701
X2.3311Y-4.3142
X0.274Y-2.8181
X8.6061Y-4.3155
X4.7622Y-2.8181
X1.2091Y-3.5661
X0.648Y-2.0701
X0.835Y-4.3142
X1.022Y-2.8181
X5.7957Y-5.064
X9.4435Y-3.8924
X9.912Y-3.568
X10.3805Y-3.8924
X3.8272Y-4.3142
X7.5673Y-4.3142
X-0.8465Y-4.3201
X9.6419Y-4.3187
X6.0713Y-4.3142
X-0.0026Y-4.3193
X8.6894Y-3.5661
X1.7701Y-2.8181
X2.1441Y-2.0701
X1.9571Y-3.5661
T0
M30
