M48
; DRILL file {KiCad (5.1.0)-1} date 13/04/2024 1:58:09 pm
; FORMAT={-:-/ absolute / inch / decimal}
; #@! TF.CreationDate,2024-04-13T13:58:09+12:00
; #@! TF.GenerationSoftware,Kicad,Pcbnew,(5.1.0)-1
; #@! TF.FileFunction,Plated,1,2,PTH
FMAT,2
INCH
T1C0.0157
T2C0.0315
T3C0.0354
T4C0.0394
T5C0.0591
T6C0.1339
%
G90
G05
T1
X-1.3276Y-3.1476
X-1.2Y-1.25
X-1.1315Y-1.1756
X-1.0571Y-2.7933
X-1.0567Y-3.0984
X-0.9996Y-1.3031
X-0.9937Y-3.0035
X-0.9921Y-2.8543
X-0.7724Y-3.0634
X-0.603Y-1.2
X-0.525Y-1.15
X-0.475Y-1.3
X-0.275Y-1.35
X-0.1024Y-2.7173
X0.0Y-1.2
X0.225Y-1.25
X0.275Y-1.1033
X0.325Y-1.35
X0.375Y-1.1
X0.475Y-1.4
X0.75Y-1.15
X0.8955Y-1.3
X0.975Y-1.1
X1.025Y-1.4
X1.075Y-1.1
X1.125Y-1.25
X1.225Y-1.4
X1.5Y-1.2
X1.675Y-1.1
X1.725Y-1.3
X1.775Y-1.0404
X1.7992Y-1.35
X1.875Y-1.05
X1.975Y-1.45
X2.25Y-1.15
X2.35Y-1.35
X2.425Y-1.0061
X2.475Y-1.4
X2.525Y-1.0049
X2.575Y-1.4
X2.625Y-1.05
X2.725Y-1.5
X3.0Y-1.05
X3.1Y-1.4
X3.175Y-1.0
X3.225Y-1.3
X3.275Y-1.05
X3.3Y-1.45
X3.375Y-1.05
X3.475Y-1.5
X3.541Y-0.915
X3.5413Y-1.5374
X3.6768Y-4.7492
X3.6811Y-1.25
X3.6811Y-1.6476
X3.7776Y-1.5748
X3.8Y-1.15
X3.8268Y-1.6083
X3.874Y-1.5374
X3.975Y-1.5
X4.0492Y-1.0059
X4.0807Y-1.45
X4.1516Y-1.0059
X4.1992Y-1.4
X4.248Y-1.7106
X4.252Y-1.0079
X4.2894Y-1.4469
X4.2996Y-1.35
X4.3504Y-1.1004
X4.3996Y-1.311
X4.4Y-1.15
X4.498Y-1.6476
X4.6102Y-0.8858
X4.6508Y-1.05
X4.7012Y-0.9256
X4.7047Y-1.4469
X4.75Y-1.675
X4.8Y-1.525
X4.8071Y-0.9626
X4.85Y-1.675
X4.8996Y-1.0079
X4.975Y-1.525
X4.975Y-1.6648
X5.0008Y-1.05
X5.1004Y-1.1004
X5.1992Y-1.15
X5.2945Y-1.2
X5.2992Y-1.3524
X5.4Y-1.7
X5.45Y-1.65
X5.5Y-1.7
X5.55Y-1.6
X5.624Y-0.9272
X5.725Y-1.6
X5.8Y-0.9283
X5.8Y-1.7
X5.9843Y-1.7407
X5.985Y-1.166
X6.1Y-1.4
X6.15Y-0.935
X6.2Y-1.6
X6.25Y-0.988
X6.3Y-1.6
X6.348Y-1.051
X6.475Y-1.55
X6.7323Y-1.1683
X6.85Y-1.45
X6.9Y-0.926
X6.95Y-1.55
X7.0Y-0.986
X7.05Y-1.55
X7.1Y-0.975
X7.225Y-1.6
X7.475Y-1.025
X7.6Y-1.5
X7.65Y-0.9228
X7.7Y-1.55
X7.75Y-0.913
X7.8Y-1.6
X7.85Y-1.125
X7.975Y-1.55
X8.225Y-1.025
X8.35Y-1.65
X8.4Y-0.825
X8.45Y-1.6
X8.5Y-0.825
X8.55Y-1.55
X8.6Y-0.825
X8.7146Y-1.6496
X8.9598Y-4.55
X8.975Y-1.175
X9.1Y-0.825
X9.1909Y-1.5
X9.2Y-0.975
X9.2598Y-1.3031
X9.3681Y-1.3996
X9.4025Y-0.825
X9.5374Y-1.128
X9.6906Y-1.3499
X9.8225Y-1.5483
X9.9075Y-0.8839
X9.951Y-1.175
X10.0571Y-0.8819
X10.125Y-1.175
X10.1882Y-3.2882
X10.1955Y-1.6
X10.2248Y-3.465
X10.4Y-1.3
X10.4094Y-1.5524
T2
X4.3996Y-0.8524
X4.3996Y-1.2524
X-1.6484Y-2.1346
X-1.6484Y-2.5346
X3.9016Y-0.8484
X3.9016Y-1.2484
X4.1004Y-0.8504
X4.1004Y-1.2504
X4.498Y-0.8524
X4.498Y-1.2524
X-1.6484Y-1.4
X-1.6484Y-1.8
X4.0Y-0.8504
X4.0Y-1.2504
X4.2008Y-0.8504
X4.2008Y-1.2504
X3.8012Y-0.8504
X3.8012Y-1.2504
X4.3012Y-0.8524
X4.3012Y-1.2524
T3
X-1.4713Y-2.7661
X-1.4713Y-2.8661
X-1.4701Y-2.0197
X-1.4701Y-2.1197
T4
X3.7504Y-0.602
X3.7504Y-0.702
X3.8504Y-0.602
X3.8504Y-0.702
X3.9504Y-0.602
X3.9504Y-0.702
X4.0504Y-0.602
X4.0504Y-0.702
X4.1504Y-0.602
X4.1504Y-0.702
X4.2504Y-0.602
X4.2504Y-0.702
X4.3504Y-0.602
X4.3504Y-0.702
X4.4504Y-0.602
X4.4504Y-0.702
X4.5504Y-0.602
X4.5504Y-0.702
X4.6504Y-0.602
X4.6504Y-0.702
X4.7504Y-0.602
X4.7504Y-0.702
X4.8504Y-0.602
X4.8504Y-0.702
X4.9504Y-0.602
X4.9504Y-0.702
X5.0504Y-0.602
X5.0504Y-0.702
X5.1504Y-0.602
X5.1504Y-0.702
X5.2504Y-0.602
X5.2504Y-0.702
X5.3504Y-0.602
X5.3504Y-0.702
T5
X-0.9988Y-1.9657
X-0.7488Y-1.8657
X6.2953Y-3.4661
X6.5453Y-3.3661
X3.1161Y-2.7181
X3.3661Y-2.6181
X3.4902Y-1.9701
X3.7402Y-1.8701
X6.6693Y-4.2142
X6.9193Y-4.1142
X3.3031Y-3.4661
X3.5531Y-3.3661
X1.2461Y-1.9701
X1.4961Y-1.8701
X2.1811Y-4.2142
X2.4311Y-4.1142
X0.124Y-2.7181
X0.374Y-2.6181
X8.4561Y-4.2155
X8.7061Y-4.1155
X4.6122Y-2.7181
X4.8622Y-2.6181
X1.0591Y-3.4661
X1.3091Y-3.3661
X0.498Y-1.9701
X0.748Y-1.8701
X0.685Y-4.2142
X0.935Y-4.1142
X0.872Y-2.7181
X1.122Y-2.6181
X5.6457Y-4.964
X5.8957Y-4.864
X9.762Y-3.468
X10.012Y-3.368
X3.6772Y-4.2142
X3.9272Y-4.1142
X7.4173Y-4.2142
X7.6673Y-4.1142
X-0.9965Y-4.2201
X-0.7465Y-4.1201
X9.4919Y-4.2187
X9.7419Y-4.1187
X5.9213Y-4.2142
X6.1713Y-4.1142
X-0.1526Y-4.2193
X0.0974Y-4.1193
X8.5394Y-3.4661
X8.7894Y-3.3661
X1.6201Y-2.7181
X1.8701Y-2.6181
X1.9941Y-1.9701
X2.2441Y-1.8701
X1.8071Y-3.4661
X2.0571Y-3.3661
X7.9783Y-1.9701
X8.2283Y-1.8701
X6.4823Y-1.9701
X6.7323Y-1.8701
X4.4252Y-4.2142
X4.6752Y-4.1142
X0.311Y-3.4661
X0.561Y-3.3661
X9.8484Y-2.7181
X10.0984Y-2.6181
X4.0512Y-3.4661
X4.3012Y-3.3661
X2.3681Y-2.7181
X2.6181Y-2.6181
X-0.811Y-2.7181
X-0.561Y-2.6181
X7.0433Y-3.4661
X7.2933Y-3.3661
X2.7421Y-1.9701
X2.9921Y-1.8701
X10.6047Y-2.7169
X10.8547Y-2.6169
X-0.7283Y-3.4661
X-0.4783Y-3.3661
X6.8563Y-2.7181
X7.1063Y-2.6181
X9.1154Y-4.9693
X9.3654Y-4.8693
X5.3602Y-2.7181
X5.6102Y-2.6181
X5.1732Y-4.2142
X5.4232Y-4.1142
X-1.5776Y-3.4685
X-1.3276Y-3.3685
X7.6043Y-2.7181
X7.8543Y-2.6181
X8.3524Y-2.7181
X8.6024Y-2.6181
X9.8669Y-4.9701
X10.1169Y-4.8701
X2.9291Y-4.2142
X3.1791Y-4.1142
X5.7343Y-1.9701
X5.9843Y-1.8701
X10.2441Y-4.2185
X10.4941Y-4.1185
X7.2303Y-1.9701
X7.4803Y-1.8701
X4.9862Y-1.9701
X5.2362Y-1.8701
X5.5472Y-3.4661
X5.7972Y-3.3661
X3.8642Y-2.7181
X4.1142Y-2.6181
X7.7913Y-3.4661
X8.0413Y-3.3661
X-0.25Y-1.9701
X0.0Y-1.8701
X1.4331Y-4.2142
X1.6831Y-4.1142
X3.6772Y-4.9622
X3.9272Y-4.8622
X2.5551Y-3.4661
X2.8051Y-3.3661
X9.8555Y-1.9685
X10.1055Y-1.8685
X4.2382Y-1.9701
X4.4882Y-1.8701
X8.7264Y-1.9701
X8.9764Y-1.8701
X6.1083Y-2.7181
X6.3583Y-2.6181
X9.1004Y-2.7181
X9.3504Y-2.6181
X1.7093Y-4.9615
X1.9593Y-4.8615
X4.7992Y-3.4661
X5.0492Y-3.3661
T6
X-1.6323Y-0.75
X-1.6323Y-5.5
X2.6087Y-0.75
X2.6087Y-5.5
X6.7906Y-0.737
X6.7906Y-5.5
X10.9815Y-0.75
X10.9815Y-5.5
T0
M30
